Coordinates
version=1
nRows=4
nColumns=107
inDegrees=yes

Units are S.I. units (second, meters, Newtons, ...)
If the header above contains a line with 'inDegrees', this indicates whether rotational values are in degrees (yes) or radians (no).

endheader
time	sternoclavicular_r2	sternoclavicular_r3	unrotscap_r3	unrotscap_r2	acromioclavicular_r2	acromioclavicular_r3	acromioclavicular_r1	unrothum_r1	unrothum_r3	unrothum_r2	elv_angle	shoulder_elv	shoulder1_r2	shoulder_rot	elbow_flexion	pro_sup	deviation	flexion	proximal_distal_r1	proximal_distal_r3	cmc_flexion	cmc_abduction	mp_flexion	ip_flexion	mcp2_flexion	mcp2_abduction	pm2_flexion	md2_flexion	mcp3_flexion	mcp3_abduction	pm3_flexion	md3_flexion	mcp4_flexion	mcp4_abduction	pm4_flexion	md4_flexion	mcp5_flexion	mcp5_abduction	pm5_flexion	md5_flexion	bicpt_tx	bicpt_ty	bicpt_tz	bicpt2_tx	bicpt2_ty	bicpt2_tz	ptpt_tx	ptpt_ty	ptpt_tz	FCUpt_tx	FCUpt_ty	FCUpt_tz	EDCpt_tx	EDCpt_ty	EDCpt_tz	APLpt_tx	APLpt_ty	APLpt_tz	FPLpt_tx	FPLpt_ty	FPLpt_tz	FPLpt2_tx	FPLpt2_ty	FPLpt2_tz	PEC1pt2_tx	PEC1pt2_ty	PEC1pt2_tz	PEC1pt3_tx	PEC1pt3_ty	PEC1pt3_tz	PEC2pt2_tx	PEC2pt2_ty	PEC2pt2_tz	PEC2pt3_tx	PEC2pt3_ty	PEC2pt3_tz	PEC3pt2_tx	PEC3pt2_ty	PEC3pt2_tz	PEC3pt3_tx	PEC3pt3_ty	PEC3pt3_tz	DELT2pt2a_tx	DELT2pt2a_ty	DELT2pt2a_tz	DELT2pt2_tx	DELT2pt2_ty	DELT2pt2_tz	LAT1pt2_tx	LAT1pt2_ty	LAT1pt2_tz	LAT1pt3_tx	LAT1pt3_ty	LAT1pt3_tz	LAT2pt2_tx	LAT2pt2_ty	LAT2pt2_tz	LAT2pt3_tx	LAT2pt3_ty	LAT2pt3_tz	LAT3pt2_tx	LAT3pt2_ty	LAT3pt2_tz	LAT3pt3_tx	LAT3pt3_ty	LAT3pt3_tz
      1.03333333	     -0.32176623	      0.13628499	     -0.13628499	      0.32176623	     -0.06515112	      0.52652841	      0.23667089	     -0.23667089	     -0.52652841	      0.06515112	     99.18056215	     76.18101511	     -1.73102736	    -18.71097881	     26.31723235	     -4.20265241	      0.32493964	      0.30817635	      0.35456643	      0.15408818	      3.62886801	    -15.39314307	    -12.96432941	    -11.24569075	     39.15231312	     10.14615896	     24.87410134	     -5.49352839	     32.20288419	      5.42916089	     52.64535198	     33.26317595	     26.07352174	     -3.93723522	     52.25507878	     26.66721887	     12.38836336	    -11.84156799	     11.91856102	      5.05842973	      0.00077049	     -0.03061636	     -0.00478586	      0.01425685	     -0.01734921	     -0.01081898	      0.00786053	     -0.06469921	      0.00028855	      0.00363149	     -0.18413719	      0.00066308	      0.00050432	     -0.00011635	     -0.00006572	     -0.00039484	     -0.00015794	     -0.00078968	     -0.00050540	     -0.00151619	     -0.00085286	      0.00004243	     -0.00008341	     -0.00010009	      0.00249705	      0.00876082	      0.00609449	     -0.00816830	      0.01972244	     -0.01870669	      0.00249705	      0.00876082	      0.00609449	      0.00055020	      0.01828346	     -0.00960728	      0.00394847	      0.00487178	      0.01596894	      0.00000000	      0.00776147	      0.00000000	     -0.00715256	     -0.03305412	     -0.00639958	      0.01302142	     -0.00039268	     -0.00286383	     -0.00088878	      0.01489763	     -0.00609449	      0.00245472	      0.02149999	     -0.01777559	     -0.00596752	      0.01290846	     -0.00545964	     -0.01244291	      0.02725590	     -0.03051475	     -0.02336220	      0.01443208	     -0.00732185	     -0.01549015	      0.03148818	     -0.03813286
      1.06666667	     -0.34310407	      0.14532269	     -0.14532269	      0.34310407	     -0.06947160	      0.56144499	      0.25236566	     -0.25236566	     -0.56144499	      0.06947160	     95.90720313	     81.23293859	     -1.67389647	      5.69332092	     26.34230340	    -37.97459265	      0.33321188	      0.24836626	      0.36133647	      0.12418313	      4.30337323	    -18.55008667	     -9.90894296	     -7.34696533	     42.31534306	      9.15100699	     27.92587374	     -2.12258732	     36.10340562	      5.79644025	     47.81602584	     32.51116791	     28.71014231	     -3.23701660	     47.62681686	     27.35354564	     12.79434147	    -11.98514019	     14.10472315	      5.05287195	      0.00077132	     -0.03061923	     -0.00478632	      0.00947394	     -0.01735602	     -0.01153154	      0.01035589	     -0.06308566	      0.00300906	      0.00086813	     -0.18425391	      0.00245649	      0.00455694	     -0.00085340	     -0.00094141	     -0.00030577	     -0.00012231	     -0.00061154	     -0.00039139	     -0.00117417	     -0.00066047	      0.00004155	     -0.00009730	     -0.00011676	      0.00266264	      0.00934180	      0.00649864	     -0.00870998	      0.02103032	     -0.01994722	      0.00266264	      0.00934180	      0.00649864	      0.00058668	      0.01949592	     -0.01024438	      0.00413500	      0.00519485	      0.01640638	      0.00000000	      0.00883368	      0.00000000	     -0.00762688	     -0.03524610	     -0.00728907	     -0.00546505	     -0.00014462	     -0.00062190	     -0.00094772	      0.01588557	     -0.00649864	      0.00261751	      0.02292576	     -0.01895437	     -0.00636325	      0.01376448	     -0.00582170	     -0.01326806	      0.02906336	     -0.03253833	     -0.02491146	      0.01538914	     -0.00780739	     -0.01651738	      0.03357631	     -0.04066163
      1.10000000	     -0.34788238	      0.14734655	     -0.14734655	      0.34788238	     -0.07043910	      0.56926406	      0.25588028	     -0.25588028	     -0.56926406	      0.07043910	     95.39406518	     82.36424455	     -1.66494052	     11.08069671	     26.55470179	    -50.54602741	      0.37832978	      0.43823611	      0.39629125	      0.21911805	      5.64415494	    -21.09057887	     -7.14449240	     -5.53188116	     44.74826516	      7.04799622	     30.71891578	     -0.63253486	     40.39290752	      4.34581912	     43.50126813	     30.52466514	     31.16264023	     -4.77945840	     45.12256392	     26.31754409	     14.36153037	    -12.51985311	     12.11324193	      5.05598501	      0.00077835	     -0.03064357	     -0.00479024	      0.00702716	     -0.01741371	     -0.01138840	      0.01128478	     -0.06248503	      0.00402175	     -0.00007062	     -0.18421465	      0.00334344	      0.00606551	     -0.00103787	     -0.00142524	     -0.00060921	     -0.00024368	     -0.00121842	     -0.00077979	     -0.00233936	     -0.00131589	      0.00003865	     -0.00012341	     -0.00014809	      0.00269972	      0.00947190	      0.00658915	     -0.00883128	      0.02132321	     -0.02022501	      0.00269972	      0.00947190	      0.00658915	      0.00059485	      0.01976744	     -0.01038706	      0.00417549	      0.00526720	      0.01649634	      0.00000000	      0.00908354	      0.00000000	     -0.00773309	     -0.03573696	     -0.00749619	     -0.01061895	     -0.00050029	     -0.00195896	     -0.00096092	      0.01610680	     -0.00658915	      0.00265396	      0.02324504	     -0.01921834	     -0.00645187	      0.01395618	     -0.00590278	     -0.01345284	      0.02946812	     -0.03299148	     -0.02525839	      0.01560346	     -0.00791613	     -0.01674741	      0.03404392	     -0.04122792
      1.13333333	     -0.35313016	      0.14956927	     -0.14956927	      0.35313016	     -0.07150167	      0.57785138	      0.25974022	     -0.25974022	     -0.57785138	      0.07150167	     94.82823607	     83.60670390	     -1.65506494	     16.95686015	     27.23908615	    -63.60485340	      0.39790136	      0.54023591	      0.41041821	      0.27011795	      7.69011046	    -22.58954351	     -4.46364760	     -2.98437070	     47.25272715	      4.92128191	     32.54778478	      1.14078325	     44.54782697	      1.80825603	     41.75061540	     29.82350721	     34.42036465	     -7.41440617	     43.32042194	     26.23968936	     17.39688289	    -13.20665054	      8.27238981	      5.02872304	      0.00080098	     -0.03072202	     -0.00480287	      0.00410254	     -0.01759963	     -0.01100498	      0.01224968	     -0.06186111	      0.00507371	     -0.00099410	     -0.18412634	      0.00439084	      0.00763256	     -0.00117782	     -0.00201856	     -0.00079715	     -0.00031886	     -0.00159430	     -0.00102035	     -0.00306106	     -0.00172184	      0.00003548	     -0.00015940	     -0.00019128	      0.00274044	      0.00961478	      0.00668854	     -0.00896450	      0.02164486	     -0.02053011	      0.00274044	      0.00961478	      0.00668854	      0.00060383	      0.02006563	     -0.01054374	      0.00421941	      0.00534666	      0.01659186	      0.00000000	      0.00936208	      0.00000000	     -0.00784975	     -0.03627605	     -0.00772700	     -0.01668400	     -0.00116945	     -0.00431819	     -0.00097541	      0.01634977	     -0.00668854	      0.00269400	      0.02359569	     -0.01950825	     -0.00654920	      0.01416670	     -0.00599182	     -0.01365577	      0.02991265	     -0.03348916	     -0.02563941	      0.01583884	     -0.00803554	     -0.01700004	      0.03455747	     -0.04184984
